<svg width="16" height="16" viewBox="0 0 16 16" fill="none" xmlns="http://www.w3.org/2000/svg">
<path d="M13.9927 13.2798C13.9927 13.518 13.7995 13.7109 13.5616 13.7109H2.42378C2.18588 13.7109 1.99268 13.518 1.99268 13.2798V5.38624C1.99268 5.17894 2.16068 5.01124 2.36768 5.01124H13.6177C13.8247 5.01124 13.9927 5.17894 13.9927 5.38624V13.2798ZM3.84998 1.89694C3.93038 1.78054 4.06298 1.71094 4.20458 1.71094H7.24268V3.51094H2.73248L3.84998 1.89694ZM11.7808 1.71094C11.9224 1.71094 12.055 1.78054 12.1354 1.89694L13.2529 3.51094H8.74268V1.71094H11.7808ZM15.1492 3.61504L13.3687 1.04314C13.0078 0.522037 12.4147 0.210938 11.7808 0.210938H4.20458C3.57068 0.210938 2.97758 0.522037 2.61668 1.04314L0.836176 3.61504C0.612376 3.93814 0.492676 4.32154 0.492676 4.71424V13.2798C0.492676 14.3463 1.35728 15.2109 2.42378 15.2109H13.5616C14.6281 15.2109 15.4927 14.3463 15.4927 13.2798V4.71424C15.4927 4.32154 15.373 3.93814 15.1492 3.61504Z" fill="white"/>
<path d="M9.76383 7.71061H5.38883C4.98604 7.71061 4.65967 7.33761 4.65967 6.87728C4.65967 6.41695 4.98604 6.04395 5.38883 6.04395H9.76383C10.1666 6.04395 10.493 6.41695 10.493 6.87728C10.493 7.33761 10.1666 7.71061 9.76383 7.71061Z" fill="white"/>
</svg>
