<svg width="17" height="18" viewBox="0 0 17 18" fill="none" xmlns="http://www.w3.org/2000/svg">
<path d="M15.0989 15.3463C15.041 15.4213 14.9116 15.5405 14.6936 15.5405H3.1453C2.92728 15.5405 2.79783 15.4213 2.73992 15.3463C2.68201 15.2748 2.59003 15.1215 2.63431 14.9103L3.07036 12.8425C3.20662 12.2021 3.60178 11.64 4.15705 11.2959L7.26759 9.36916C7.76835 9.61204 8.32908 9.74933 8.91943 9.74933C9.50945 9.74933 10.0698 9.61204 10.5709 9.3695L13.6818 11.2959C14.2371 11.64 14.6322 12.2021 14.7685 12.8425L15.2046 14.9103C15.2488 15.1215 15.1569 15.2748 15.0989 15.3463ZM7.15688 2.60644C7.55817 2.16018 8.10935 1.91422 8.70993 1.91422H9.12894C9.72918 1.91422 10.2807 2.16018 10.682 2.60644C11.0829 3.05304 11.2689 3.62773 11.2049 4.22456L10.9954 6.18061C10.8813 7.24414 9.9891 8.04604 8.91943 8.04604C7.84977 8.04604 6.95759 7.24414 6.84347 6.18061L6.63397 4.22422C6.56992 3.62773 6.75558 3.05304 7.15688 2.60644ZM16.8704 14.5594L16.4343 12.4916C16.2027 11.3913 15.535 10.4375 14.5777 9.84471L11.9578 8.22148C12.3519 7.69346 12.6142 7.05916 12.6888 6.36184L12.8986 4.40579C13.1385 2.16495 11.3824 0.210938 9.12894 0.210938H8.70993C6.45614 0.210938 4.7004 2.16495 4.94022 4.40579L5.14973 6.36184C5.22467 7.05916 5.48732 7.69381 5.88112 8.22182L3.26112 9.84471C2.30388 10.4375 1.63619 11.3913 1.40454 12.4916L0.968503 14.5594C0.675538 15.9425 1.73157 17.2438 3.1453 17.2438H14.6936C16.1073 17.2438 17.1633 15.9425 16.8704 14.5594Z" fill="white"/>
<path d="M12.0076 13.6476H10.3043C9.83383 13.6476 9.45264 13.2664 9.45264 12.796C9.45264 12.3255 9.83383 11.9443 10.3043 11.9443H12.0076C12.478 11.9443 12.8592 12.3255 12.8592 12.796C12.8592 13.2664 12.478 13.6476 12.0076 13.6476Z" fill="white"/>
</svg>
