<svg width="18" height="18" viewBox="0 0 18 18" fill="none" xmlns="http://www.w3.org/2000/svg">
<path d="M14.4624 0.569336H3.01804C1.48396 0.569336 0.240234 1.81306 0.240234 3.34714V10.7115C0.240234 12.2456 1.48396 13.4893 3.01804 13.4893H3.88572L2.73482 16.192C2.57195 16.632 2.7967 17.1212 3.237 17.2841C3.6773 17.4469 4.16622 17.2222 4.32942 16.7819L5.94747 12.981C5.95053 12.9739 5.95393 12.9664 5.957 12.9589L5.96754 12.9345C5.97433 12.9158 5.97637 12.8971 5.98181 12.8787C5.99065 12.8488 5.9995 12.8199 6.00494 12.7889C6.01072 12.758 6.01241 12.7274 6.01445 12.6965C6.01581 12.6771 6.02024 12.6591 6.02024 12.6393C6.02024 12.6332 6.01854 12.6278 6.01854 12.622C6.01786 12.5894 6.01309 12.5577 6.00868 12.5258C6.00527 12.5013 6.00357 12.4768 5.99814 12.453C5.99201 12.4258 5.9825 12.4 5.97366 12.3735C5.96482 12.3473 5.95767 12.3208 5.94645 12.2956C5.93591 12.2715 5.92163 12.2494 5.90871 12.2262C5.89511 12.2021 5.88287 12.1769 5.8669 12.1542C5.85091 12.1314 5.83187 12.111 5.81386 12.0899C5.79685 12.0698 5.78088 12.0491 5.76184 12.0304C5.74246 12.0114 5.72002 11.9954 5.69826 11.978C5.6765 11.9607 5.65576 11.9427 5.63229 11.9274C5.61189 11.9141 5.58946 11.9039 5.5677 11.8924C5.53914 11.8771 5.51125 11.8618 5.48099 11.8499C5.47555 11.8478 5.4708 11.8444 5.46535 11.842C5.44666 11.8352 5.42796 11.8332 5.4096 11.8278C5.38002 11.8189 5.35078 11.8101 5.31984 11.8043C5.2889 11.7989 5.2583 11.7972 5.22736 11.7951C5.20797 11.7938 5.18996 11.7893 5.17024 11.7893H3.01804C2.4227 11.7893 1.94023 11.3069 1.94023 10.7115V3.34714C1.94023 2.7518 2.4227 2.26934 3.01804 2.26934H14.4624C15.0574 2.26934 15.5402 2.7518 15.5402 3.34714V10.7115C15.5402 11.3069 15.0574 11.7893 14.4624 11.7893H8.57024C8.1007 11.7893 7.72023 12.1698 7.72023 12.6393C7.72023 13.1089 8.1007 13.4893 8.57024 13.4893H14.4624C15.9965 13.4893 17.2402 12.2456 17.2402 10.7115V3.34714C17.2402 1.81306 15.9965 0.569336 14.4624 0.569336Z" fill="white"/>
<path d="M11.4606 5.49941C11.4606 5.02987 11.0802 4.64941 10.6106 4.64941H4.49062C4.02108 4.64941 3.64062 5.02987 3.64062 5.49941C3.64062 5.96895 4.02108 6.34941 4.49062 6.34941H10.6106C11.0802 6.34941 11.4606 5.96895 11.4606 5.49941Z" fill="white"/>
<path d="M8.91062 9.40898H4.49063C4.02108 9.40898 3.64062 9.02852 3.64062 8.55898C3.64062 8.08944 4.02108 7.70898 4.49063 7.70898H8.91062C9.38017 7.70898 9.76062 8.08944 9.76062 8.55898C9.76062 9.02852 9.38017 9.40898 8.91062 9.40898Z" fill="white"/>
</svg>
