<svg width="15" height="18" viewBox="0 0 15 18" fill="none" xmlns="http://www.w3.org/2000/svg">
<path d="M10.5366 0.569336H3.9439C2.62655 0.569336 1.52332 1.5675 1.39247 2.87824L0.253219 14.2704C0.102222 15.7801 1.2874 17.0898 2.80465 17.0898H11.6758C13.1931 17.0898 14.3782 15.7801 14.2272 14.2704L13.088 2.87824C12.9572 1.5675 11.8539 0.569336 10.5366 0.569336ZM10.5366 2.22139C11.0071 2.22139 11.3973 2.57459 11.4442 3.04279L12.5835 14.435C12.6185 14.7852 12.4536 15.0254 12.3522 15.1378C12.2507 15.2498 12.028 15.4378 11.6758 15.4378H2.80465C2.45243 15.4378 2.22973 15.2498 2.1283 15.1378C2.02686 15.0254 1.86199 14.7852 1.89701 14.435L3.03626 3.04279C3.08285 2.57459 3.4734 2.22139 3.9439 2.22139H10.5366Z" fill="white"/>
<path d="M9.57537 3.54297C9.22877 3.54297 8.91521 3.7584 8.80122 4.08583C8.57654 4.73145 7.96231 5.19502 7.24069 5.19502C6.51875 5.19502 5.90452 4.73145 5.67984 4.08583C5.56585 3.7584 5.25262 3.54297 4.90569 3.54297C4.32813 3.54297 3.93527 4.11854 4.13087 4.66174C4.58981 5.93547 5.80936 6.84707 7.24069 6.84707C8.6717 6.84707 9.89157 5.93547 10.3502 4.66174C10.5461 4.11854 10.1529 3.54297 9.57537 3.54297Z" fill="white"/>
</svg>
