<?xml version="1.0" encoding="UTF-8" standalone="no"?>
<!DOCTYPE svg PUBLIC "-//W3C//DTD SVG 1.1//EN" "http://www.w3.org/Graphics/SVG/1.1/DTD/svg11.dtd">
<svg width="100%" height="100%" viewBox="0 0 512 512" version="1.1" xmlns="http://www.w3.org/2000/svg" xmlns:xlink="http://www.w3.org/1999/xlink" xml:space="preserve" xmlns:serif="http://www.serif.com/" style="fill-rule:evenodd;clip-rule:evenodd;stroke-linejoin:round;stroke-miterlimit:2;">
    <g transform="matrix(1,0,0,1,-5174,-83)">
        <g transform="matrix(1.22488,0,0,1.22488,2797.73,94.0239)">
            <circle cx="2149" cy="200" r="209" style="fill:white;"/>
        </g>
        <g transform="matrix(34.8883,0,0,34.898,2776.63,-3853.79)">
            <path d="M71.794,119.498C73.409,120.478 75.319,118.952 75.319,118.952C73.549,122.16 71.794,119.498 71.794,119.498M77.239,118.011L76.189,117.814C75.471,117.679 74.867,117.199 74.57,116.534L74.138,115.556C74.068,115.403 73.854,115.393 73.774,115.542L73.262,116.479C72.912,117.12 72.27,117.548 71.543,117.622L70.48,117.733C70.314,117.75 70.238,117.952 70.354,118.074L71.088,118.85C71.589,119.381 71.798,120.124 71.645,120.838L71.421,121.882C71.386,122.048 71.555,122.181 71.706,122.109L72.672,121.65C73.332,121.338 74.102,121.369 74.735,121.735L75.659,122.271C75.804,122.355 75.982,122.236 75.962,122.07L75.824,121.009C75.73,120.286 75.999,119.563 76.542,119.074L77.338,118.361C77.462,118.248 77.405,118.042 77.239,118.011" style="fill:rgb(102,193,53);fill-rule:nonzero;"/>
        </g>
        <g transform="matrix(-0.284757,0,0,0.284837,5687.35,293.191)">
            <path d="M546.92,171C558.64,168 570.78,171.5 581.34,176.67C591.633,181.291 601.55,186.707 611,192.87C616.11,196.38 621.45,199.99 624.7,205.43C623.895,206.743 622.45,207.536 620.91,207.51C615.85,207.58 610.91,206.23 606.05,205C594.63,201.82 583.43,197.86 572.37,193.58C569.806,192.553 566.859,193.183 564.94,195.17C560.45,199.28 558.78,205.41 557.58,211.17C539.113,286.837 520.683,362.503 502.29,438.17C500.629,445.274 494.294,450.374 487,450.48C401.98,450.54 316.96,450.54 231.94,450.48C226.83,450.41 221.59,450.96 216.63,449.4C206.63,445.14 204.44,430.51 211.92,422.99C214.75,419.94 218.92,418.7 223.03,418.79L474.33,418.79C487.39,365.69 500.19,312.52 513.18,259.4C519.073,235.253 524.967,211.1 530.86,186.94C532.723,179.006 538.973,172.803 546.92,171Z" style="fill:rgb(123,30,185);fill-rule:nonzero;"/>
        </g>
        <g transform="matrix(-0.284757,0,0,0.284837,5687.35,293.191)">
            <path d="M210.94,271.2C300.027,257.733 389.107,244.23 478.18,230.69C482.596,229.645 487.196,231.73 489.32,235.74C490.53,240.49 460.647,394.17 443.56,394.14C346.131,393.97 346.131,393.97 259.09,394.14C254.18,394.15 249.27,394.24 244.37,393.97C241.86,392.45 239.47,390.5 238.59,387.59C225.46,352.99 212.44,318.36 199.29,283.78C197.54,279.92 199.41,275.07 202.97,272.96C205.44,271.72 208.27,271.66 210.94,271.2Z" style="fill:rgb(123,30,185);fill-rule:nonzero;"/>
        </g>
        <g transform="matrix(-0.284757,0,0,0.284837,5687.35,293.191)">
            <path d="M284.1,467.6C297.92,464.5 313.18,472.09 319.04,484.99C324.115,495.645 322.804,508.293 315.65,517.68C306.71,529.99 288.54,533.8 275.3,526.36C263.53,519.96 256.73,505.85 259.38,492.66C261.868,480.142 271.617,470.259 284.1,467.6Z" style="fill:rgb(123,30,185);fill-rule:nonzero;"/>
        </g>
        <g transform="matrix(-0.284757,0,0,0.284837,5687.35,293.191)">
            <path d="M402.52,467.72C416.99,464.12 433.09,472.41 438.67,486.2C444.86,499.97 439.31,517.59 426.37,525.36C416.3,531.674 403.482,531.779 393.31,525.63C381.58,518.91 375.49,504.1 378.88,491.04C381.743,479.457 390.899,470.425 402.52,467.72Z" style="fill:rgb(123,30,185);fill-rule:nonzero;"/>
        </g>
        <g transform="matrix(1.70786,-0.51251,0.512368,1.70833,5229.3,119.117)">
            <path d="M72.62,71.1C91.02,69.78 109.7,74.62 125.34,84.35C148.75,98.75 165.43,123.67 169.44,150.91C171.61,150.91 173.78,150.99 175.95,150.99C170.79,159.82 165.73,168.71 160.59,177.56C155.34,168.76 150.38,159.79 145.16,150.97C147.1,150.95 149.03,150.95 150.97,150.94C150.755,144.088 149.618,137.287 147.654,130.732C143.865,118.088 137,106.358 127.74,96.94C113.35,81.9 93.24,73 72.62,71.1" style="fill:rgb(123,30,185);stroke:rgb(123,30,185);stroke-width:1.44px;"/>
        </g>
        <g transform="matrix(-1.36962,1.14199,-1.14167,-1.37001,5737.09,474.056)">
            <path d="M72.62,71.1C91.02,69.78 109.7,74.62 125.34,84.35C148.75,98.75 165.43,123.67 169.44,150.91C171.61,150.91 173.78,150.99 175.95,150.99C170.79,159.82 165.73,168.71 160.59,177.56C155.34,168.76 150.38,159.79 145.16,150.97C147.1,150.95 149.03,150.95 150.97,150.94C150.784,145.002 149.905,139.102 148.395,133.368C144.803,119.721 137.64,107.009 127.74,96.94C113.35,81.9 93.24,73 72.62,71.1" style="fill:rgb(102,193,53);stroke:rgb(102,193,53);stroke-width:1.44px;"/>
        </g>
    </g>
</svg>
