<?xml version="1.0" encoding="UTF-8" standalone="no"?>
<!DOCTYPE svg PUBLIC "-//W3C//DTD SVG 1.1//EN" "http://www.w3.org/Graphics/SVG/1.1/DTD/svg11.dtd">
<svg width="100%" height="100%" viewBox="0 0 862 202" version="1.1" xmlns="http://www.w3.org/2000/svg" xmlns:xlink="http://www.w3.org/1999/xlink" xml:space="preserve" xmlns:serif="http://www.serif.com/" style="fill-rule:evenodd;clip-rule:evenodd;stroke-linejoin:round;stroke-miterlimit:2;">
    <g transform="matrix(1,0,0,1,-31310.6,-2295.23)">
        <g>
            <g transform="matrix(0.838063,0,0,0.838063,30121.2,2274.82)">
                <path d="M1460.96,138.87L1460.96,166.145L1487.46,166.145L1487.46,186.601L1460.77,186.601L1460.77,228.099C1460.77,237.255 1465.83,241.735 1473.24,241.735C1476.94,241.735 1481.23,240.567 1484.73,238.813L1491.36,259.075C1484.54,261.802 1478.89,262.971 1471.68,263.166C1450.83,263.944 1437.2,252.06 1437.2,228.099L1437.2,186.601L1419.27,186.601L1419.27,166.145L1437.2,166.145L1437.2,141.403L1460.96,138.87Z" style="fill:white;fill-rule:nonzero;"/>
            </g>
            <g transform="matrix(0.838063,0,0,0.838063,30121.2,2273.08)">
                <path d="M1528.96,140.817L1528.96,181.077C1537.53,169.971 1548.05,166.66 1558.96,166.66C1586.23,166.66 1598.31,185.168 1598.31,213.417L1598.31,264.07L1574.55,264.07L1574.55,213.612C1574.55,196.078 1565.39,188.674 1552.73,188.674C1538.7,188.674 1528.96,200.558 1528.96,214.975L1528.96,264.07L1505.19,264.07L1505.19,143.396L1528.96,140.817Z" style="fill:white;fill-rule:nonzero;"/>
            </g>
            <g transform="matrix(0.838063,0,0,0.838063,30121.2,2296.37)">
                <path d="M1636.89,188.158C1636.89,206.471 1649.55,217.382 1665.33,217.382C1702.74,217.382 1702.74,159.131 1665.33,159.131C1649.55,159.131 1636.89,169.845 1636.89,188.158M1693.8,142.102L1717.35,140.233L1717.35,236.279L1693.8,236.279L1693.78,222.252C1688.32,233.552 1673.32,239.006 1662.61,239.201C1634.16,239.396 1613.12,221.862 1613.12,188.158C1613.12,155.039 1635.14,137.7 1663.19,137.894C1676.05,137.894 1688.32,143.934 1693.78,153.48L1693.8,142.102Z" style="fill:white;fill-rule:nonzero;"/>
            </g>
            <g transform="matrix(0.838063,0,0,0.838063,30121.2,2293.76)">
                <path d="M1761.19,143.35L1761.19,154.454C1768.59,142.57 1778.53,140.817 1788.27,140.817C1798.21,140.817 1807.75,144.713 1813.01,149.974L1802.3,170.624C1797.43,166.533 1792.95,164.39 1785.15,164.39C1772.68,164.39 1761.19,171.014 1761.19,188.743L1761.19,239.396L1737.42,239.396L1737.42,145.219L1761.19,143.35Z" style="fill:white;fill-rule:nonzero;"/>
            </g>
            <g transform="matrix(0.838063,0,0,0.838063,30121.2,2296.37)">
                <path d="M1840.48,188.158C1840.48,206.471 1853.15,217.382 1868.93,217.382C1906.33,217.382 1906.33,159.131 1868.93,159.131C1853.15,159.131 1840.48,169.845 1840.48,188.158M1897.43,142.102L1920.94,140.233L1920.94,236.279L1897.43,236.279L1897.43,222.252C1891.98,233.552 1876.91,239.006 1866.2,239.201C1837.76,239.396 1816.71,221.862 1816.71,188.158C1816.71,155.039 1838.73,137.7 1866.78,137.894C1879.64,137.894 1891.98,143.934 1897.43,153.48L1897.43,142.102Z" style="fill:white;fill-rule:nonzero;"/>
            </g>
            <g transform="matrix(0.838063,0,0,0.838063,30121.2,2296.04)">
                <path d="M2062.78,224.396C2051.67,235.306 2039.98,239.591 2025.76,239.591C1997.9,239.591 1974.72,222.837 1974.72,188.744C1974.72,154.65 1997.9,137.895 2025.76,137.895C2039.4,137.895 2049.92,141.792 2060.44,152.117L2045.44,167.898C2039.79,162.833 2032.77,160.3 2026.15,160.3C2010.17,160.3 1998.49,171.99 1998.49,188.744C1998.49,207.056 2010.95,216.797 2025.76,216.797C2033.36,216.797 2040.96,214.654 2046.8,208.81L2062.78,224.396Z" style="fill:white;fill-rule:nonzero;"/>
            </g>
            <g transform="matrix(0.838063,0,0,0.838063,30121.2,2296.37)">
                <path d="M2091.81,188.158C2091.81,206.471 2104.47,217.382 2120.25,217.382C2157.66,217.382 2157.66,159.131 2120.25,159.131C2104.47,159.131 2091.81,169.845 2091.81,188.158M2148.64,142.102L2172.27,140.233L2172.27,236.279L2148.64,236.279L2148.65,222.208C2143.19,233.508 2128.24,239.006 2117.52,239.201C2089.08,239.396 2068.04,221.862 2068.04,188.158C2068.04,155.039 2090.05,137.7 2118.11,137.894C2130.97,137.894 2143.18,143.934 2148.64,153.48L2148.64,142.102Z" style="fill:white;fill-rule:nonzero;"/>
            </g>
            <g transform="matrix(0.838063,0,0,0.838063,30121.2,2293.76)">
                <path d="M2216.22,143.35L2216.22,154.454C2223.62,142.57 2233.44,140.817 2243.18,140.817C2253.12,140.817 2262.67,144.713 2267.93,149.974L2257.21,170.624C2252.34,166.533 2247.86,164.39 2240.07,164.39C2227.6,164.39 2216.11,171.014 2216.11,188.743L2216.11,239.396L2192.34,239.396L2192.34,145.219L2216.22,143.35Z" style="fill:white;fill-rule:nonzero;"/>
            </g>
            <g transform="matrix(0.838063,0,0,0.838063,30121.2,2274.82)">
                <path d="M2316.44,138.87L2316.44,166.145L2342.93,166.145L2342.93,186.601L2316.24,186.601L2316.24,228.099C2316.24,237.255 2321.31,241.735 2328.71,241.735C2332.41,241.735 2336.7,240.567 2340.21,238.813L2346.83,259.075C2340.01,261.802 2334.36,262.971 2327.15,263.166C2306.31,263.944 2292.67,252.06 2292.67,228.099L2292.67,186.601L2274.75,186.601L2274.75,166.145L2292.67,166.145L2292.67,141.403L2316.44,138.87Z" style="fill:white;fill-rule:nonzero;"/>
            </g>
        </g>
        <g transform="matrix(0.838063,0,0,0.838063,30121.2,2074.13)">
            <path d="M2353.22,331.535C2380.14,347.859 2411.96,322.437 2411.96,322.437C2382.48,375.899 2353.22,331.535 2353.22,331.535M2443.97,306.743L2426.46,303.46C2414.5,301.219 2404.42,293.239 2399.49,282.122L2392.27,265.836C2391.13,263.275 2387.55,263.129 2386.21,265.587L2377.68,281.225C2371.85,291.901 2361.15,299.027 2349.05,300.28L2331.33,302.117C2328.54,302.405 2327.3,305.763 2329.22,307.798L2341.46,320.747C2349.81,329.586 2353.28,341.97 2350.73,353.861L2347,371.282C2346.42,374.02 2349.23,376.243 2351.76,375.042L2367.85,367.406C2378.84,362.193 2391.69,362.721 2402.21,368.817L2417.63,377.748C2420.05,379.151 2423.03,377.168 2422.67,374.39L2420.38,356.722C2418.82,344.661 2423.29,332.604 2432.34,324.479L2445.6,312.578C2447.69,310.707 2446.72,307.26 2443.97,306.743" style="fill:rgb(0,239,73);fill-rule:nonzero;"/>
        </g>
    </g>
</svg>
