<svg width="253" height="236" viewBox="0 0 253 236" fill="none" xmlns="http://www.w3.org/2000/svg">
<path fill-rule="evenodd" clip-rule="evenodd" d="M252.943 0C252.953 0.316598 252.953 0.633476 252.953 0.950356C252.953 130.269 143.039 235.259 7.65334 235.259C5.09242 235.259 2.5413 235.222 0 235.148V156.988C2.53149 157.1 5.08261 157.156 7.65334 157.156C97.9039 157.156 171.18 87.1627 171.18 0.950356C171.18 0.633383 171.18 0.316598 171.18 0H252.943Z" fill="#9547F5" fill-opacity="0.3"/>
<path fill-rule="evenodd" clip-rule="evenodd" d="M171.18 0C171.18 0.316598 171.18 0.633383 171.18 0.950355C171.18 87.1627 97.9039 157.156 7.65334 157.156C5.08261 157.156 2.53149 157.1 0 156.988V78.7154C2.52168 78.939 5.07279 79.0533 7.65334 79.0533C52.7786 79.0533 89.4166 44.0566 89.4166 0.950355C89.4166 0.633195 89.4166 0.316317 89.4068 0H171.18Z" fill="#9F5CF3" fill-opacity="0.4"/>
<path fill-rule="evenodd" clip-rule="evenodd" d="M89.4068 0C89.4166 0.316317 89.4167 0.633195 89.4167 0.950356C89.4167 44.0566 52.7786 79.0533 7.65335 79.0533C5.07279 79.0533 2.52168 78.939 0 78.7154V0H89.4068Z" fill="#A96FF1" fill-opacity="0.5"/>
</svg>
