<svg width="147" height="61" viewBox="0 0 147 61" fill="none" xmlns="http://www.w3.org/2000/svg">
<path fill-rule="evenodd" clip-rule="evenodd" d="M6.60969 24.373V28.1683H10.298V31.0135H6.58193V36.7905C6.58193 38.0637 7.28594 38.6873 8.31829 38.6873C8.83447 38.6873 9.43069 38.5257 9.91746 38.2808L10.842 41.0999C9.89131 41.4786 9.10563 41.6435 8.10105 41.6696C5.19838 41.779 3.29866 40.1238 3.29866 36.7905V31.0135H0.802734V28.1683H3.29866V24.724L6.60969 24.373Z" fill="white"/>
<path fill-rule="evenodd" clip-rule="evenodd" d="M16.0773 24.3555V29.9578C17.2697 28.4135 18.7366 27.9516 20.2573 27.9516C24.0551 27.9516 25.736 30.5274 25.736 34.4582V41.5084H22.4266V34.4876C22.4266 32.0456 21.1508 31.0155 19.3867 31.0155C17.4347 31.0155 16.0773 32.6691 16.0773 34.6753V41.5084H12.7695V24.7146L16.0773 24.3555Z" fill="white"/>
<path fill-rule="evenodd" clip-rule="evenodd" d="M31.1099 34.811C31.1099 37.3591 32.8707 38.8772 35.071 38.8772C40.2801 38.8772 40.2801 30.7709 35.071 30.7709C32.8707 30.7709 31.1099 32.2629 31.1099 34.811ZM39.0338 28.4007L42.3121 28.1411V41.507H39.0338L39.0321 39.5563C38.271 41.1283 36.1834 41.8873 34.6888 41.9151C30.7309 41.9412 27.7988 39.5024 27.7988 34.811C27.7988 30.2012 30.8648 27.7885 34.7737 27.8147C36.5623 27.8147 38.271 28.6553 39.0321 29.9841L39.0338 28.4007Z" fill="white"/>
<path fill-rule="evenodd" clip-rule="evenodd" d="M48.4188 28.14V29.6875C49.4511 28.0323 50.8347 27.7891 52.1904 27.7891C53.574 27.7891 54.9052 28.331 55.637 29.0623L54.1457 31.9385C53.4662 31.3672 52.8422 31.0685 51.7576 31.0685C50.0196 31.0685 48.4188 31.9908 48.4188 34.4573V41.5075H45.1094V28.4012L48.4188 28.14Z" fill="white"/>
<path fill-rule="evenodd" clip-rule="evenodd" d="M59.4617 34.811C59.4617 37.3591 61.2259 38.8772 63.4229 38.8772C68.632 38.8772 68.632 30.7709 63.4229 30.7709C61.2259 30.7709 59.4617 32.2629 59.4617 34.811ZM67.3938 28.4007L70.6673 28.1411V41.507H67.3938V39.5563C66.6326 41.1283 64.5369 41.8873 63.0423 41.9151C59.0828 41.9412 56.1523 39.5024 56.1523 34.811C56.1523 30.2012 59.2183 27.7885 63.1256 27.8147C64.9159 27.8147 66.6326 28.6553 67.3938 29.9841V28.4007Z" fill="white"/>
<path fill-rule="evenodd" clip-rule="evenodd" d="M90.4203 39.8004C88.8718 41.3185 87.2448 41.916 85.2651 41.916C81.384 41.916 78.1562 39.5833 78.1562 34.8397C78.1562 30.0944 81.384 27.7617 85.2651 27.7617C87.1631 27.7617 88.6284 28.3053 90.0919 29.7418L88.0044 31.9389C87.2171 31.2321 86.2419 30.8812 85.319 30.8812C83.0958 30.8812 81.4673 32.507 81.4673 34.8397C81.4673 37.3878 83.202 38.7443 85.2651 38.7443C86.3219 38.7443 87.382 38.4456 88.1955 37.6326L90.4203 39.8004Z" fill="white"/>
<path fill-rule="evenodd" clip-rule="evenodd" d="M94.4634 34.811C94.4634 37.3591 96.2243 38.8772 98.4229 38.8772C103.635 38.8772 103.635 30.7709 98.4229 30.7709C96.2243 30.7709 94.4634 32.2629 94.4634 34.811ZM102.378 28.4007L105.667 28.1411V41.507H102.378L102.379 39.5497C101.62 41.1217 99.5353 41.8873 98.0439 41.9151C94.0828 41.9412 91.1523 39.5024 91.1523 34.811C91.1523 30.2012 94.2183 27.7885 98.1256 27.8147C99.9159 27.8147 101.616 28.6553 102.378 29.9841V28.4007Z" fill="white"/>
<path fill-rule="evenodd" clip-rule="evenodd" d="M111.789 28.14V29.6875C112.821 28.0323 114.187 27.7891 115.544 27.7891C116.929 27.7891 118.259 28.331 118.991 29.0623L117.498 31.9385C116.818 31.3672 116.196 31.0685 115.109 31.0685C113.373 31.0685 111.774 31.9908 111.774 34.4573V41.5075H108.463V28.4012L111.789 28.14Z" fill="white"/>
<path fill-rule="evenodd" clip-rule="evenodd" d="M125.745 24.373V28.1683H129.435V31.0135H125.719V36.7905C125.719 38.0637 126.425 38.6873 127.454 38.6873C127.972 38.6873 128.568 38.5257 129.056 38.2808L129.979 41.0999C129.03 41.4786 128.243 41.6435 127.24 41.6696C124.335 41.779 122.436 40.1238 122.436 36.7905V31.0135H119.941V28.1683H122.436V24.724L125.745 24.373Z" fill="white"/>
<path d="M129.749 12.3552C134.505 15.2382 140.128 10.75 140.128 10.75C134.915 20.1882 129.749 12.3552 129.749 12.3552ZM145.784 7.97888L142.689 7.39897C140.577 7.00338 138.797 5.59294 137.923 3.63366L136.65 0.754792C136.445 0.303286 135.815 0.276353 135.579 0.71336L134.072 3.47417C133.04 5.35683 131.15 6.61608 129.011 6.83769L125.879 7.16285C125.39 7.21256 125.166 7.80697 125.508 8.16735L127.67 10.4497C129.146 12.0114 129.759 14.1985 129.309 16.2986L128.65 19.3742C128.547 19.8589 129.044 20.2503 129.49 20.0391L132.333 18.6907C134.277 17.7691 136.544 17.8623 138.408 18.9393L141.129 20.5154C141.558 20.764 142.082 20.4139 142.022 19.9251L141.616 16.804C141.34 14.6748 142.13 12.5457 143.73 11.1104L146.074 9.01031C146.439 8.67893 146.271 8.07208 145.784 7.97888Z" fill="#66BD46"/>
<path d="M63.8751 56.1162C63.8751 56.4501 63.7965 56.7801 63.6392 57.1063C63.4857 57.4324 63.2689 57.7087 62.9887 57.9351C62.6818 58.1807 62.323 58.3726 61.9124 58.5107C61.5056 58.6488 61.0145 58.7179 60.4389 58.7179C59.8211 58.7179 59.2647 58.6604 58.7697 58.5452C58.2785 58.4301 57.7777 58.2594 57.2674 58.033V56.6055H57.348C57.7816 56.9662 58.2823 57.2444 58.8503 57.4401C59.4182 57.6358 59.9515 57.7337 60.4504 57.7337C61.1564 57.7337 61.7052 57.6013 62.0966 57.3365C62.4918 57.0717 62.6894 56.7187 62.6894 56.2774C62.6894 55.8975 62.5954 55.6174 62.4074 55.4371C62.2232 55.2567 61.9412 55.1166 61.5613 55.0169C61.2735 54.9401 60.9607 54.8768 60.6231 54.8269C60.2892 54.777 59.9343 54.7137 59.5582 54.637C58.7985 54.4758 58.2344 54.2015 57.866 53.8139C57.5015 53.4225 57.3192 52.9141 57.3192 52.2886C57.3192 51.571 57.6223 50.9839 58.2286 50.5273C58.8349 50.0668 59.6043 49.8366 60.5367 49.8366C61.1392 49.8366 61.6917 49.8941 62.1944 50.0092C62.6971 50.1244 63.1422 50.2663 63.5298 50.4352V51.7821H63.4492C63.123 51.5058 62.6933 51.2775 62.1599 51.0971C61.6303 50.9129 61.0874 50.8208 60.531 50.8208C59.9208 50.8208 59.4297 50.9475 59.0575 51.2007C58.6891 51.454 58.5049 51.7801 58.5049 52.1792C58.5049 52.5361 58.597 52.8162 58.7812 53.0196C58.9654 53.223 59.2896 53.3784 59.7539 53.4858C59.9995 53.5395 60.3487 53.6048 60.8015 53.6815C61.2543 53.7582 61.638 53.8369 61.9527 53.9175C62.5897 54.0863 63.0693 54.3415 63.3917 54.683C63.714 55.0245 63.8751 55.5023 63.8751 56.1162ZM71.0009 55.4601H66.2638C66.2638 55.8553 66.3233 56.2007 66.4423 56.4961C66.5612 56.7878 66.7243 57.0276 66.9315 57.2156C67.1311 57.3998 67.3671 57.538 67.6395 57.63C67.9158 57.7221 68.2189 57.7682 68.5489 57.7682C68.9864 57.7682 69.4257 57.6818 69.867 57.5092C70.3122 57.3327 70.6287 57.16 70.8168 56.9911H70.8743V58.1711C70.5098 58.3246 70.1376 58.4531 69.7577 58.5567C69.3778 58.6604 68.9787 58.7122 68.5604 58.7122C67.4937 58.7122 66.661 58.4244 66.0624 57.8488C65.4638 57.2693 65.1645 56.4482 65.1645 55.3852C65.1645 54.3338 65.4503 53.4992 66.0221 52.8814C66.5977 52.2636 67.3536 51.9547 68.2899 51.9547C69.1571 51.9547 69.8248 52.208 70.293 52.7145C70.7649 53.221 71.0009 53.9405 71.0009 54.873V55.4601ZM69.9476 54.6312C69.9438 54.0633 69.7999 53.6239 69.5159 53.3131C69.2358 53.0023 68.8079 52.8469 68.2324 52.8469C67.6529 52.8469 67.1905 53.0177 66.8452 53.3592C66.5037 53.7007 66.3099 54.1247 66.2638 54.6312H69.9476ZM73.735 58.5625H72.6529V49.6063H73.735V58.5625ZM76.9698 58.5625H75.8877V49.6063H76.9698V58.5625ZM84.4927 55.4601H79.7556C79.7556 55.8553 79.8151 56.2007 79.9341 56.4961C80.053 56.7878 80.2161 57.0276 80.4233 57.2156C80.6229 57.3998 80.8589 57.538 81.1313 57.63C81.4076 57.7221 81.7107 57.7682 82.0407 57.7682C82.4782 57.7682 82.9176 57.6818 83.3588 57.5092C83.804 57.3327 84.1205 57.16 84.3086 56.9911H84.3661V58.1711C84.0016 58.3246 83.6294 58.4531 83.2495 58.5567C82.8696 58.6604 82.4705 58.7122 82.0523 58.7122C80.9855 58.7122 80.1528 58.4244 79.5542 57.8488C78.9556 57.2693 78.6563 56.4482 78.6563 55.3852C78.6563 54.3338 78.9422 53.4992 79.5139 52.8814C80.0895 52.2636 80.8454 51.9547 81.7817 51.9547C82.6489 51.9547 83.3166 52.208 83.7848 52.7145C84.2568 53.221 84.4927 53.9405 84.4927 54.873V55.4601ZM83.4394 54.6312C83.4356 54.0633 83.2917 53.6239 83.0077 53.3131C82.7276 53.0023 82.2998 52.8469 81.7242 52.8469C81.1447 52.8469 80.6823 53.0177 80.337 53.3592C79.9955 53.7007 79.8017 54.1247 79.7556 54.6312H83.4394ZM90.145 53.3131H90.0875C89.9263 53.2748 89.769 53.2479 89.6155 53.2325C89.4658 53.2134 89.2874 53.2038 89.0802 53.2038C88.7464 53.2038 88.424 53.2786 88.1132 53.4282C87.8024 53.5741 87.5031 53.764 87.2153 53.9981V58.5625H86.1332V52.1332H87.2153V53.0829C87.6451 52.7375 88.023 52.4939 88.3492 52.3519C88.6792 52.2061 89.015 52.1332 89.3565 52.1332C89.5445 52.1332 89.6807 52.1389 89.7651 52.1504C89.8496 52.1581 89.9762 52.1754 90.145 52.2022V53.3131ZM102.152 58.5625H100.937L100.097 56.1738H96.3902L95.5498 58.5625H94.3929L97.5126 49.992H99.0321L102.152 58.5625ZM99.7459 55.1953L98.2436 50.9877L96.7355 55.1953H99.7459ZM109.024 55.2701C109.024 55.792 108.95 56.2697 108.8 56.7033C108.65 57.1331 108.439 57.4977 108.167 57.797C107.913 58.0809 107.614 58.3016 107.269 58.4589C106.927 58.6124 106.565 58.6891 106.181 58.6891C105.847 58.6891 105.544 58.6527 105.272 58.5798C105.003 58.5069 104.729 58.3937 104.448 58.2402V60.9339H103.366V52.1332H104.448V52.8066C104.736 52.5649 105.059 52.3634 105.415 52.2022C105.776 52.0372 106.16 51.9547 106.567 51.9547C107.342 51.9547 107.944 52.2483 108.374 52.8354C108.808 53.4187 109.024 54.2302 109.024 55.2701ZM107.908 55.2989C107.908 54.5238 107.775 53.9444 107.511 53.5606C107.246 53.1769 106.839 52.985 106.29 52.985C105.979 52.985 105.667 53.0522 105.352 53.1865C105.037 53.3208 104.736 53.4973 104.448 53.716V57.3595C104.755 57.4977 105.018 57.5917 105.237 57.6416C105.46 57.6914 105.711 57.7164 105.991 57.7164C106.593 57.7164 107.064 57.513 107.401 57.1063C107.739 56.6995 107.908 56.0971 107.908 55.2989ZM116.369 55.2701C116.369 55.792 116.294 56.2697 116.144 56.7033C115.995 57.1331 115.784 57.4977 115.511 57.797C115.258 58.0809 114.959 58.3016 114.613 58.4589C114.272 58.6124 113.909 58.6891 113.525 58.6891C113.192 58.6891 112.888 58.6527 112.616 58.5798C112.347 58.5069 112.073 58.3937 111.793 58.2402V60.9339H110.711V52.1332H111.793V52.8066C112.081 52.5649 112.403 52.3634 112.76 52.2022C113.121 52.0372 113.504 51.9547 113.911 51.9547C114.686 51.9547 115.289 52.2483 115.718 52.8354C116.152 53.4187 116.369 54.2302 116.369 55.2701ZM115.252 55.2989C115.252 54.5238 115.12 53.9444 114.855 53.5606C114.59 53.1769 114.184 52.985 113.635 52.985C113.324 52.985 113.011 53.0522 112.697 53.1865C112.382 53.3208 112.081 53.4973 111.793 53.716V57.3595C112.1 57.4977 112.363 57.5917 112.581 57.6416C112.804 57.6914 113.055 57.7164 113.336 57.7164C113.938 57.7164 114.408 57.513 114.746 57.1063C115.083 56.6995 115.252 56.0971 115.252 55.2989Z" fill="white"/>
</svg>
